<svg width="105" height="105" viewBox="0 0 105 105" fill="none" xmlns="http://www.w3.org/2000/svg">
<rect width="105" height="105" rx="10" fill="white"/>
<path d="M7 7H10.1379V10.1379H7V7Z" fill="black"/>
<path d="M10.1379 7H13.2759V10.1379H10.1379V7Z" fill="black"/>
<path d="M13.2759 7H16.4138V10.1379H13.2759V7Z" fill="black"/>
<path d="M16.4138 7H19.5517V10.1379H16.4138V7Z" fill="black"/>
<path d="M19.5517 7H22.6897V10.1379H19.5517V7Z" fill="black"/>
<path d="M22.6897 7H25.8276V10.1379H22.6897V7Z" fill="black"/>
<path d="M25.8276 7H28.9655V10.1379H25.8276V7Z" fill="black"/>
<path d="M35.2414 7H38.3793V10.1379H35.2414V7Z" fill="black"/>
<path d="M41.5172 7H44.6552V10.1379H41.5172V7Z" fill="black"/>
<path d="M44.6552 7H47.7931V10.1379H44.6552V7Z" fill="black"/>
<path d="M47.7931 7H50.931V10.1379H47.7931V7Z" fill="black"/>
<path d="M57.2069 7H60.3448V10.1379H57.2069V7Z" fill="black"/>
<path d="M60.3448 7H63.4828V10.1379H60.3448V7Z" fill="black"/>
<path d="M66.6207 7H69.7586V10.1379H66.6207V7Z" fill="black"/>
<path d="M69.7586 7H72.8966V10.1379H69.7586V7Z" fill="black"/>
<path d="M76.0345 7H79.1724V10.1379H76.0345V7Z" fill="black"/>
<path d="M79.1724 7H82.3103V10.1379H79.1724V7Z" fill="black"/>
<path d="M82.3103 7H85.4483V10.1379H82.3103V7Z" fill="black"/>
<path d="M85.4483 7H88.5862V10.1379H85.4483V7Z" fill="black"/>
<path d="M88.5862 7H91.7241V10.1379H88.5862V7Z" fill="black"/>
<path d="M91.7241 7H94.8621V10.1379H91.7241V7Z" fill="black"/>
<path d="M94.8621 7H98V10.1379H94.8621V7Z" fill="black"/>
<path d="M7 10.1379H10.1379V13.2759H7V10.1379Z" fill="black"/>
<path d="M25.8276 10.1379H28.9655V13.2759H25.8276V10.1379Z" fill="black"/>
<path d="M32.1034 10.1379H35.2414V13.2759H32.1034V10.1379Z" fill="black"/>
<path d="M35.2414 10.1379H38.3793V13.2759H35.2414V10.1379Z" fill="black"/>
<path d="M38.3793 10.1379H41.5172V13.2759H38.3793V10.1379Z" fill="black"/>
<path d="M60.3448 10.1379H63.4828V13.2759H60.3448V10.1379Z" fill="black"/>
<path d="M63.4828 10.1379H66.6207V13.2759H63.4828V10.1379Z" fill="black"/>
<path d="M69.7586 10.1379H72.8966V13.2759H69.7586V10.1379Z" fill="black"/>
<path d="M76.0345 10.1379H79.1724V13.2759H76.0345V10.1379Z" fill="black"/>
<path d="M94.8621 10.1379H98V13.2759H94.8621V10.1379Z" fill="black"/>
<path d="M7 13.2759H10.1379V16.4138H7V13.2759Z" fill="black"/>
<path d="M13.2759 13.2759H16.4138V16.4138H13.2759V13.2759Z" fill="black"/>
<path d="M16.4138 13.2759H19.5517V16.4138H16.4138V13.2759Z" fill="black"/>
<path d="M19.5517 13.2759H22.6897V16.4138H19.5517V13.2759Z" fill="black"/>
<path d="M25.8276 13.2759H28.9655V16.4138H25.8276V13.2759Z" fill="black"/>
<path d="M32.1034 13.2759H35.2414V16.4138H32.1034V13.2759Z" fill="black"/>
<path d="M35.2414 13.2759H38.3793V16.4138H35.2414V13.2759Z" fill="black"/>
<path d="M38.3793 13.2759H41.5172V16.4138H38.3793V13.2759Z" fill="black"/>
<path d="M41.5172 13.2759H44.6552V16.4138H41.5172V13.2759Z" fill="black"/>
<path d="M47.7931 13.2759H50.931V16.4138H47.7931V13.2759Z" fill="black"/>
<path d="M60.3448 13.2759H63.4828V16.4138H60.3448V13.2759Z" fill="black"/>
<path d="M66.6207 13.2759H69.7586V16.4138H66.6207V13.2759Z" fill="black"/>
<path d="M69.7586 13.2759H72.8966V16.4138H69.7586V13.2759Z" fill="black"/>
<path d="M76.0345 13.2759H79.1724V16.4138H76.0345V13.2759Z" fill="black"/>
<path d="M82.3103 13.2759H85.4483V16.4138H82.3103V13.2759Z" fill="black"/>
<path d="M85.4483 13.2759H88.5862V16.4138H85.4483V13.2759Z" fill="black"/>
<path d="M88.5862 13.2759H91.7241V16.4138H88.5862V13.2759Z" fill="black"/>
<path d="M94.8621 13.2759H98V16.4138H94.8621V13.2759Z" fill="black"/>
<path d="M7 16.4138H10.1379V19.5517H7V16.4138Z" fill="black"/>
<path d="M13.2759 16.4138H16.4138V19.5517H13.2759V16.4138Z" fill="black"/>
<path d="M16.4138 16.4138H19.5517V19.5517H16.4138V16.4138Z" fill="black"/>
<path d="M19.5517 16.4138H22.6897V19.5517H19.5517V16.4138Z" fill="black"/>
<path d="M25.8276 16.4138H28.9655V19.5517H25.8276V16.4138Z" fill="black"/>
<path d="M32.1034 16.4138H35.2414V19.5517H32.1034V16.4138Z" fill="black"/>
<path d="M47.7931 16.4138H50.931V19.5517H47.7931V16.4138Z" fill="black"/>
<path d="M60.3448 16.4138H63.4828V19.5517H60.3448V16.4138Z" fill="black"/>
<path d="M69.7586 16.4138H72.8966V19.5517H69.7586V16.4138Z" fill="black"/>
<path d="M76.0345 16.4138H79.1724V19.5517H76.0345V16.4138Z" fill="black"/>
<path d="M82.3103 16.4138H85.4483V19.5517H82.3103V16.4138Z" fill="black"/>
<path d="M85.4483 16.4138H88.5862V19.5517H85.4483V16.4138Z" fill="black"/>
<path d="M88.5862 16.4138H91.7241V19.5517H88.5862V16.4138Z" fill="black"/>
<path d="M94.8621 16.4138H98V19.5517H94.8621V16.4138Z" fill="black"/>
<path d="M7 19.5517H10.1379V22.6897H7V19.5517Z" fill="black"/>
<path d="M13.2759 19.5517H16.4138V22.6897H13.2759V19.5517Z" fill="black"/>
<path d="M16.4138 19.5517H19.5517V22.6897H16.4138V19.5517Z" fill="black"/>
<path d="M19.5517 19.5517H22.6897V22.6897H19.5517V19.5517Z" fill="black"/>
<path d="M25.8276 19.5517H28.9655V22.6897H25.8276V19.5517Z" fill="black"/>
<path d="M32.1034 19.5517H35.2414V22.6897H32.1034V19.5517Z" fill="black"/>
<path d="M35.2414 19.5517H38.3793V22.6897H35.2414V19.5517Z" fill="black"/>
<path d="M38.3793 19.5517H41.5172V22.6897H38.3793V19.5517Z" fill="black"/>
<path d="M44.6552 19.5517H47.7931V22.6897H44.6552V19.5517Z" fill="black"/>
<path d="M50.931 19.5517H54.069V22.6897H50.931V19.5517Z" fill="black"/>
<path d="M57.2069 19.5517H60.3448V22.6897H57.2069V19.5517Z" fill="black"/>
<path d="M63.4828 19.5517H66.6207V22.6897H63.4828V19.5517Z" fill="black"/>
<path d="M76.0345 19.5517H79.1724V22.6897H76.0345V19.5517Z" fill="black"/>
<path d="M82.3103 19.5517H85.4483V22.6897H82.3103V19.5517Z" fill="black"/>
<path d="M85.4483 19.5517H88.5862V22.6897H85.4483V19.5517Z" fill="black"/>
<path d="M88.5862 19.5517H91.7241V22.6897H88.5862V19.5517Z" fill="black"/>
<path d="M94.8621 19.5517H98V22.6897H94.8621V19.5517Z" fill="black"/>
<path d="M7 22.6897H10.1379V25.8276H7V22.6897Z" fill="black"/>
<path d="M25.8276 22.6897H28.9655V25.8276H25.8276V22.6897Z" fill="black"/>
<path d="M32.1034 22.6897H35.2414V25.8276H32.1034V22.6897Z" fill="black"/>
<path d="M38.3793 22.6897H41.5172V25.8276H38.3793V22.6897Z" fill="black"/>
<path d="M44.6552 22.6897H47.7931V25.8276H44.6552V22.6897Z" fill="black"/>
<path d="M50.931 22.6897H54.069V25.8276H50.931V22.6897Z" fill="black"/>
<path d="M54.069 22.6897H57.2069V25.8276H54.069V22.6897Z" fill="black"/>
<path d="M57.2069 22.6897H60.3448V25.8276H57.2069V22.6897Z" fill="black"/>
<path d="M60.3448 22.6897H63.4828V25.8276H60.3448V22.6897Z" fill="black"/>
<path d="M63.4828 22.6897H66.6207V25.8276H63.4828V22.6897Z" fill="black"/>
<path d="M69.7586 22.6897H72.8966V25.8276H69.7586V22.6897Z" fill="black"/>
<path d="M76.0345 22.6897H79.1724V25.8276H76.0345V22.6897Z" fill="black"/>
<path d="M94.8621 22.6897H98V25.8276H94.8621V22.6897Z" fill="black"/>
<path d="M7 25.8276H10.1379V28.9655H7V25.8276Z" fill="black"/>
<path d="M10.1379 25.8276H13.2759V28.9655H10.1379V25.8276Z" fill="black"/>
<path d="M13.2759 25.8276H16.4138V28.9655H13.2759V25.8276Z" fill="black"/>
<path d="M16.4138 25.8276H19.5517V28.9655H16.4138V25.8276Z" fill="black"/>
<path d="M19.5517 25.8276H22.6897V28.9655H19.5517V25.8276Z" fill="black"/>
<path d="M22.6897 25.8276H25.8276V28.9655H22.6897V25.8276Z" fill="black"/>
<path d="M25.8276 25.8276H28.9655V28.9655H25.8276V25.8276Z" fill="black"/>
<path d="M32.1034 25.8276H35.2414V28.9655H32.1034V25.8276Z" fill="black"/>
<path d="M38.3793 25.8276H41.5172V28.9655H38.3793V25.8276Z" fill="black"/>
<path d="M44.6552 25.8276H47.7931V28.9655H44.6552V25.8276Z" fill="black"/>
<path d="M50.931 25.8276H54.069V28.9655H50.931V25.8276Z" fill="black"/>
<path d="M57.2069 25.8276H60.3448V28.9655H57.2069V25.8276Z" fill="black"/>
<path d="M63.4828 25.8276H66.6207V28.9655H63.4828V25.8276Z" fill="black"/>
<path d="M69.7586 25.8276H72.8966V28.9655H69.7586V25.8276Z" fill="black"/>
<path d="M76.0345 25.8276H79.1724V28.9655H76.0345V25.8276Z" fill="black"/>
<path d="M79.1724 25.8276H82.3103V28.9655H79.1724V25.8276Z" fill="black"/>
<path d="M82.3103 25.8276H85.4483V28.9655H82.3103V25.8276Z" fill="black"/>
<path d="M85.4483 25.8276H88.5862V28.9655H85.4483V25.8276Z" fill="black"/>
<path d="M88.5862 25.8276H91.7241V28.9655H88.5862V25.8276Z" fill="black"/>
<path d="M91.7241 25.8276H94.8621V28.9655H91.7241V25.8276Z" fill="black"/>
<path d="M94.8621 25.8276H98V28.9655H94.8621V25.8276Z" fill="black"/>
<path d="M41.5172 28.9655H44.6552V32.1034H41.5172V28.9655Z" fill="black"/>
<path d="M44.6552 28.9655H47.7931V32.1034H44.6552V28.9655Z" fill="black"/>
<path d="M47.7931 28.9655H50.931V32.1034H47.7931V28.9655Z" fill="black"/>
<path d="M54.069 28.9655H57.2069V32.1034H54.069V28.9655Z" fill="black"/>
<path d="M57.2069 28.9655H60.3448V32.1034H57.2069V28.9655Z" fill="black"/>
<path d="M60.3448 28.9655H63.4828V32.1034H60.3448V28.9655Z" fill="black"/>
<path d="M66.6207 28.9655H69.7586V32.1034H66.6207V28.9655Z" fill="black"/>
<path d="M69.7586 28.9655H72.8966V32.1034H69.7586V28.9655Z" fill="black"/>
<path d="M13.2759 32.1034H16.4138V35.2414H13.2759V32.1034Z" fill="black"/>
<path d="M22.6897 32.1034H25.8276V35.2414H22.6897V32.1034Z" fill="black"/>
<path d="M25.8276 32.1034H28.9655V35.2414H25.8276V32.1034Z" fill="black"/>
<path d="M28.9655 32.1034H32.1034V35.2414H28.9655V32.1034Z" fill="black"/>
<path d="M32.1034 32.1034H35.2414V35.2414H32.1034V32.1034Z" fill="black"/>
<path d="M41.5172 32.1034H44.6552V35.2414H41.5172V32.1034Z" fill="black"/>
<path d="M60.3448 32.1034H63.4828V35.2414H60.3448V32.1034Z" fill="black"/>
<path d="M66.6207 32.1034H69.7586V35.2414H66.6207V32.1034Z" fill="black"/>
<path d="M69.7586 32.1034H72.8966V35.2414H69.7586V32.1034Z" fill="black"/>
<path d="M72.8966 32.1034H76.0345V35.2414H72.8966V32.1034Z" fill="black"/>
<path d="M79.1724 32.1034H82.3103V35.2414H79.1724V32.1034Z" fill="black"/>
<path d="M82.3103 32.1034H85.4483V35.2414H82.3103V32.1034Z" fill="black"/>
<path d="M85.4483 32.1034H88.5862V35.2414H85.4483V32.1034Z" fill="black"/>
<path d="M88.5862 32.1034H91.7241V35.2414H88.5862V32.1034Z" fill="black"/>
<path d="M91.7241 32.1034H94.8621V35.2414H91.7241V32.1034Z" fill="black"/>
<path d="M7 35.2414H10.1379V38.3793H7V35.2414Z" fill="black"/>
<path d="M10.1379 35.2414H13.2759V38.3793H10.1379V35.2414Z" fill="black"/>
<path d="M16.4138 35.2414H19.5517V38.3793H16.4138V35.2414Z" fill="black"/>
<path d="M19.5517 35.2414H22.6897V38.3793H19.5517V35.2414Z" fill="black"/>
<path d="M28.9655 35.2414H32.1034V38.3793H28.9655V35.2414Z" fill="black"/>
<path d="M32.1034 35.2414H35.2414V38.3793H32.1034V35.2414Z" fill="black"/>
<path d="M44.6552 35.2414H47.7931V38.3793H44.6552V35.2414Z" fill="black"/>
<path d="M57.2069 35.2414H60.3448V38.3793H57.2069V35.2414Z" fill="black"/>
<path d="M60.3448 35.2414H63.4828V38.3793H60.3448V35.2414Z" fill="black"/>
<path d="M69.7586 35.2414H72.8966V38.3793H69.7586V35.2414Z" fill="black"/>
<path d="M76.0345 35.2414H79.1724V38.3793H76.0345V35.2414Z" fill="black"/>
<path d="M79.1724 35.2414H82.3103V38.3793H79.1724V35.2414Z" fill="black"/>
<path d="M88.5862 35.2414H91.7241V38.3793H88.5862V35.2414Z" fill="black"/>
<path d="M91.7241 35.2414H94.8621V38.3793H91.7241V35.2414Z" fill="black"/>
<path d="M94.8621 35.2414H98V38.3793H94.8621V35.2414Z" fill="black"/>
<path d="M7 38.3793H10.1379V41.5172H7V38.3793Z" fill="black"/>
<path d="M10.1379 38.3793H13.2759V41.5172H10.1379V38.3793Z" fill="black"/>
<path d="M13.2759 38.3793H16.4138V41.5172H13.2759V38.3793Z" fill="black"/>
<path d="M16.4138 38.3793H19.5517V41.5172H16.4138V38.3793Z" fill="black"/>
<path d="M25.8276 38.3793H28.9655V41.5172H25.8276V38.3793Z" fill="black"/>
<path d="M28.9655 38.3793H32.1034V41.5172H28.9655V38.3793Z" fill="black"/>
<path d="M38.3793 38.3793H41.5172V41.5172H38.3793V38.3793Z" fill="black"/>
<path d="M41.5172 38.3793H44.6552V41.5172H41.5172V38.3793Z" fill="black"/>
<path d="M50.931 38.3793H54.069V41.5172H50.931V38.3793Z" fill="black"/>
<path d="M54.069 38.3793H57.2069V41.5172H54.069V38.3793Z" fill="black"/>
<path d="M63.4828 38.3793H66.6207V41.5172H63.4828V38.3793Z" fill="black"/>
<path d="M69.7586 38.3793H72.8966V41.5172H69.7586V38.3793Z" fill="black"/>
<path d="M72.8966 38.3793H76.0345V41.5172H72.8966V38.3793Z" fill="black"/>
<path d="M79.1724 38.3793H82.3103V41.5172H79.1724V38.3793Z" fill="black"/>
<path d="M88.5862 38.3793H91.7241V41.5172H88.5862V38.3793Z" fill="black"/>
<path d="M94.8621 38.3793H98V41.5172H94.8621V38.3793Z" fill="black"/>
<path d="M7 41.5172H10.1379V44.6552H7V41.5172Z" fill="black"/>
<path d="M16.4138 41.5172H19.5517V44.6552H16.4138V41.5172Z" fill="black"/>
<path d="M22.6897 41.5172H25.8276V44.6552H22.6897V41.5172Z" fill="black"/>
<path d="M32.1034 41.5172H35.2414V44.6552H32.1034V41.5172Z" fill="black"/>
<path d="M41.5172 41.5172H44.6552V44.6552H41.5172V41.5172Z" fill="black"/>
<path d="M50.931 41.5172H54.069V44.6552H50.931V41.5172Z" fill="black"/>
<path d="M57.2069 41.5172H60.3448V44.6552H57.2069V41.5172Z" fill="black"/>
<path d="M66.6207 41.5172H69.7586V44.6552H66.6207V41.5172Z" fill="black"/>
<path d="M69.7586 41.5172H72.8966V44.6552H69.7586V41.5172Z" fill="black"/>
<path d="M76.0345 41.5172H79.1724V44.6552H76.0345V41.5172Z" fill="black"/>
<path d="M79.1724 41.5172H82.3103V44.6552H79.1724V41.5172Z" fill="black"/>
<path d="M82.3103 41.5172H85.4483V44.6552H82.3103V41.5172Z" fill="black"/>
<path d="M85.4483 41.5172H88.5862V44.6552H85.4483V41.5172Z" fill="black"/>
<path d="M7 44.6552H10.1379V47.7931H7V44.6552Z" fill="black"/>
<path d="M13.2759 44.6552H16.4138V47.7931H13.2759V44.6552Z" fill="black"/>
<path d="M16.4138 44.6552H19.5517V47.7931H16.4138V44.6552Z" fill="black"/>
<path d="M22.6897 44.6552H25.8276V47.7931H22.6897V44.6552Z" fill="black"/>
<path d="M25.8276 44.6552H28.9655V47.7931H25.8276V44.6552Z" fill="black"/>
<path d="M32.1034 44.6552H35.2414V47.7931H32.1034V44.6552Z" fill="black"/>
<path d="M54.069 44.6552H57.2069V47.7931H54.069V44.6552Z" fill="black"/>
<path d="M60.3448 44.6552H63.4828V47.7931H60.3448V44.6552Z" fill="black"/>
<path d="M63.4828 44.6552H66.6207V47.7931H63.4828V44.6552Z" fill="black"/>
<path d="M72.8966 44.6552H76.0345V47.7931H72.8966V44.6552Z" fill="black"/>
<path d="M76.0345 44.6552H79.1724V47.7931H76.0345V44.6552Z" fill="black"/>
<path d="M85.4483 44.6552H88.5862V47.7931H85.4483V44.6552Z" fill="black"/>
<path d="M91.7241 44.6552H94.8621V47.7931H91.7241V44.6552Z" fill="black"/>
<path d="M7 47.7931H10.1379V50.931H7V47.7931Z" fill="black"/>
<path d="M19.5517 47.7931H22.6897V50.931H19.5517V47.7931Z" fill="black"/>
<path d="M22.6897 47.7931H25.8276V50.931H22.6897V47.7931Z" fill="black"/>
<path d="M35.2414 47.7931H38.3793V50.931H35.2414V47.7931Z" fill="black"/>
<path d="M38.3793 47.7931H41.5172V50.931H38.3793V47.7931Z" fill="black"/>
<path d="M47.7931 47.7931H50.931V50.931H47.7931V47.7931Z" fill="black"/>
<path d="M50.931 47.7931H54.069V50.931H50.931V47.7931Z" fill="black"/>
<path d="M63.4828 47.7931H66.6207V50.931H63.4828V47.7931Z" fill="black"/>
<path d="M66.6207 47.7931H69.7586V50.931H66.6207V47.7931Z" fill="black"/>
<path d="M69.7586 47.7931H72.8966V50.931H69.7586V47.7931Z" fill="black"/>
<path d="M76.0345 47.7931H79.1724V50.931H76.0345V47.7931Z" fill="black"/>
<path d="M85.4483 47.7931H88.5862V50.931H85.4483V47.7931Z" fill="black"/>
<path d="M94.8621 47.7931H98V50.931H94.8621V47.7931Z" fill="black"/>
<path d="M7 50.931H10.1379V54.069H7V50.931Z" fill="black"/>
<path d="M10.1379 50.931H13.2759V54.069H10.1379V50.931Z" fill="black"/>
<path d="M22.6897 50.931H25.8276V54.069H22.6897V50.931Z" fill="black"/>
<path d="M25.8276 50.931H28.9655V54.069H25.8276V50.931Z" fill="black"/>
<path d="M35.2414 50.931H38.3793V54.069H35.2414V50.931Z" fill="black"/>
<path d="M38.3793 50.931H41.5172V54.069H38.3793V50.931Z" fill="black"/>
<path d="M47.7931 50.931H50.931V54.069H47.7931V50.931Z" fill="black"/>
<path d="M54.069 50.931H57.2069V54.069H54.069V50.931Z" fill="black"/>
<path d="M57.2069 50.931H60.3448V54.069H57.2069V50.931Z" fill="black"/>
<path d="M60.3448 50.931H63.4828V54.069H60.3448V50.931Z" fill="black"/>
<path d="M63.4828 50.931H66.6207V54.069H63.4828V50.931Z" fill="black"/>
<path d="M66.6207 50.931H69.7586V54.069H66.6207V50.931Z" fill="black"/>
<path d="M72.8966 50.931H76.0345V54.069H72.8966V50.931Z" fill="black"/>
<path d="M76.0345 50.931H79.1724V54.069H76.0345V50.931Z" fill="black"/>
<path d="M85.4483 50.931H88.5862V54.069H85.4483V50.931Z" fill="black"/>
<path d="M88.5862 50.931H91.7241V54.069H88.5862V50.931Z" fill="black"/>
<path d="M94.8621 50.931H98V54.069H94.8621V50.931Z" fill="black"/>
<path d="M7 54.069H10.1379V57.2069H7V54.069Z" fill="black"/>
<path d="M16.4138 54.069H19.5517V57.2069H16.4138V54.069Z" fill="black"/>
<path d="M22.6897 54.069H25.8276V57.2069H22.6897V54.069Z" fill="black"/>
<path d="M28.9655 54.069H32.1034V57.2069H28.9655V54.069Z" fill="black"/>
<path d="M32.1034 54.069H35.2414V57.2069H32.1034V54.069Z" fill="black"/>
<path d="M35.2414 54.069H38.3793V57.2069H35.2414V54.069Z" fill="black"/>
<path d="M38.3793 54.069H41.5172V57.2069H38.3793V54.069Z" fill="black"/>
<path d="M41.5172 54.069H44.6552V57.2069H41.5172V54.069Z" fill="black"/>
<path d="M44.6552 54.069H47.7931V57.2069H44.6552V54.069Z" fill="black"/>
<path d="M47.7931 54.069H50.931V57.2069H47.7931V54.069Z" fill="black"/>
<path d="M66.6207 54.069H69.7586V57.2069H66.6207V54.069Z" fill="black"/>
<path d="M69.7586 54.069H72.8966V57.2069H69.7586V54.069Z" fill="black"/>
<path d="M72.8966 54.069H76.0345V57.2069H72.8966V54.069Z" fill="black"/>
<path d="M76.0345 54.069H79.1724V57.2069H76.0345V54.069Z" fill="black"/>
<path d="M85.4483 54.069H88.5862V57.2069H85.4483V54.069Z" fill="black"/>
<path d="M94.8621 54.069H98V57.2069H94.8621V54.069Z" fill="black"/>
<path d="M16.4138 57.2069H19.5517V60.3448H16.4138V57.2069Z" fill="black"/>
<path d="M25.8276 57.2069H28.9655V60.3448H25.8276V57.2069Z" fill="black"/>
<path d="M28.9655 57.2069H32.1034V60.3448H28.9655V57.2069Z" fill="black"/>
<path d="M35.2414 57.2069H38.3793V60.3448H35.2414V57.2069Z" fill="black"/>
<path d="M38.3793 57.2069H41.5172V60.3448H38.3793V57.2069Z" fill="black"/>
<path d="M41.5172 57.2069H44.6552V60.3448H41.5172V57.2069Z" fill="black"/>
<path d="M50.931 57.2069H54.069V60.3448H50.931V57.2069Z" fill="black"/>
<path d="M54.069 57.2069H57.2069V60.3448H54.069V57.2069Z" fill="black"/>
<path d="M57.2069 57.2069H60.3448V60.3448H57.2069V57.2069Z" fill="black"/>
<path d="M60.3448 57.2069H63.4828V60.3448H60.3448V57.2069Z" fill="black"/>
<path d="M66.6207 57.2069H69.7586V60.3448H66.6207V57.2069Z" fill="black"/>
<path d="M69.7586 57.2069H72.8966V60.3448H69.7586V57.2069Z" fill="black"/>
<path d="M76.0345 57.2069H79.1724V60.3448H76.0345V57.2069Z" fill="black"/>
<path d="M79.1724 57.2069H82.3103V60.3448H79.1724V57.2069Z" fill="black"/>
<path d="M94.8621 57.2069H98V60.3448H94.8621V57.2069Z" fill="black"/>
<path d="M19.5517 60.3448H22.6897V63.4828H19.5517V60.3448Z" fill="black"/>
<path d="M22.6897 60.3448H25.8276V63.4828H22.6897V60.3448Z" fill="black"/>
<path d="M28.9655 60.3448H32.1034V63.4828H28.9655V60.3448Z" fill="black"/>
<path d="M32.1034 60.3448H35.2414V63.4828H32.1034V60.3448Z" fill="black"/>
<path d="M38.3793 60.3448H41.5172V63.4828H38.3793V60.3448Z" fill="black"/>
<path d="M41.5172 60.3448H44.6552V63.4828H41.5172V60.3448Z" fill="black"/>
<path d="M44.6552 60.3448H47.7931V63.4828H44.6552V60.3448Z" fill="black"/>
<path d="M47.7931 60.3448H50.931V63.4828H47.7931V60.3448Z" fill="black"/>
<path d="M50.931 60.3448H54.069V63.4828H50.931V60.3448Z" fill="black"/>
<path d="M57.2069 60.3448H60.3448V63.4828H57.2069V60.3448Z" fill="black"/>
<path d="M60.3448 60.3448H63.4828V63.4828H60.3448V60.3448Z" fill="black"/>
<path d="M76.0345 60.3448H79.1724V63.4828H76.0345V60.3448Z" fill="black"/>
<path d="M85.4483 60.3448H88.5862V63.4828H85.4483V60.3448Z" fill="black"/>
<path d="M94.8621 60.3448H98V63.4828H94.8621V60.3448Z" fill="black"/>
<path d="M7 63.4828H10.1379V66.6207H7V63.4828Z" fill="black"/>
<path d="M10.1379 63.4828H13.2759V66.6207H10.1379V63.4828Z" fill="black"/>
<path d="M22.6897 63.4828H25.8276V66.6207H22.6897V63.4828Z" fill="black"/>
<path d="M25.8276 63.4828H28.9655V66.6207H25.8276V63.4828Z" fill="black"/>
<path d="M32.1034 63.4828H35.2414V66.6207H32.1034V63.4828Z" fill="black"/>
<path d="M41.5172 63.4828H44.6552V66.6207H41.5172V63.4828Z" fill="black"/>
<path d="M44.6552 63.4828H47.7931V66.6207H44.6552V63.4828Z" fill="black"/>
<path d="M57.2069 63.4828H60.3448V66.6207H57.2069V63.4828Z" fill="black"/>
<path d="M63.4828 63.4828H66.6207V66.6207H63.4828V63.4828Z" fill="black"/>
<path d="M66.6207 63.4828H69.7586V66.6207H66.6207V63.4828Z" fill="black"/>
<path d="M82.3103 63.4828H85.4483V66.6207H82.3103V63.4828Z" fill="black"/>
<path d="M94.8621 63.4828H98V66.6207H94.8621V63.4828Z" fill="black"/>
<path d="M13.2759 66.6207H16.4138V69.7586H13.2759V66.6207Z" fill="black"/>
<path d="M16.4138 66.6207H19.5517V69.7586H16.4138V66.6207Z" fill="black"/>
<path d="M22.6897 66.6207H25.8276V69.7586H22.6897V66.6207Z" fill="black"/>
<path d="M32.1034 66.6207H35.2414V69.7586H32.1034V66.6207Z" fill="black"/>
<path d="M35.2414 66.6207H38.3793V69.7586H35.2414V66.6207Z" fill="black"/>
<path d="M38.3793 66.6207H41.5172V69.7586H38.3793V66.6207Z" fill="black"/>
<path d="M41.5172 66.6207H44.6552V69.7586H41.5172V66.6207Z" fill="black"/>
<path d="M44.6552 66.6207H47.7931V69.7586H44.6552V66.6207Z" fill="black"/>
<path d="M47.7931 66.6207H50.931V69.7586H47.7931V66.6207Z" fill="black"/>
<path d="M50.931 66.6207H54.069V69.7586H50.931V66.6207Z" fill="black"/>
<path d="M57.2069 66.6207H60.3448V69.7586H57.2069V66.6207Z" fill="black"/>
<path d="M63.4828 66.6207H66.6207V69.7586H63.4828V66.6207Z" fill="black"/>
<path d="M69.7586 66.6207H72.8966V69.7586H69.7586V66.6207Z" fill="black"/>
<path d="M72.8966 66.6207H76.0345V69.7586H72.8966V66.6207Z" fill="black"/>
<path d="M76.0345 66.6207H79.1724V69.7586H76.0345V66.6207Z" fill="black"/>
<path d="M85.4483 66.6207H88.5862V69.7586H85.4483V66.6207Z" fill="black"/>
<path d="M91.7241 66.6207H94.8621V69.7586H91.7241V66.6207Z" fill="black"/>
<path d="M7 69.7586H10.1379V72.8966H7V69.7586Z" fill="black"/>
<path d="M10.1379 69.7586H13.2759V72.8966H10.1379V69.7586Z" fill="black"/>
<path d="M13.2759 69.7586H16.4138V72.8966H13.2759V69.7586Z" fill="black"/>
<path d="M16.4138 69.7586H19.5517V72.8966H16.4138V69.7586Z" fill="black"/>
<path d="M19.5517 69.7586H22.6897V72.8966H19.5517V69.7586Z" fill="black"/>
<path d="M22.6897 69.7586H25.8276V72.8966H22.6897V69.7586Z" fill="black"/>
<path d="M25.8276 69.7586H28.9655V72.8966H25.8276V69.7586Z" fill="black"/>
<path d="M28.9655 69.7586H32.1034V72.8966H28.9655V69.7586Z" fill="black"/>
<path d="M38.3793 69.7586H41.5172V72.8966H38.3793V69.7586Z" fill="black"/>
<path d="M41.5172 69.7586H44.6552V72.8966H41.5172V69.7586Z" fill="black"/>
<path d="M44.6552 69.7586H47.7931V72.8966H44.6552V69.7586Z" fill="black"/>
<path d="M69.7586 69.7586H72.8966V72.8966H69.7586V69.7586Z" fill="black"/>
<path d="M72.8966 69.7586H76.0345V72.8966H72.8966V69.7586Z" fill="black"/>
<path d="M76.0345 69.7586H79.1724V72.8966H76.0345V69.7586Z" fill="black"/>
<path d="M79.1724 69.7586H82.3103V72.8966H79.1724V69.7586Z" fill="black"/>
<path d="M82.3103 69.7586H85.4483V72.8966H82.3103V69.7586Z" fill="black"/>
<path d="M85.4483 69.7586H88.5862V72.8966H85.4483V69.7586Z" fill="black"/>
<path d="M94.8621 69.7586H98V72.8966H94.8621V69.7586Z" fill="black"/>
<path d="M32.1034 72.8966H35.2414V76.0345H32.1034V72.8966Z" fill="black"/>
<path d="M35.2414 72.8966H38.3793V76.0345H35.2414V72.8966Z" fill="black"/>
<path d="M38.3793 72.8966H41.5172V76.0345H38.3793V72.8966Z" fill="black"/>
<path d="M41.5172 72.8966H44.6552V76.0345H41.5172V72.8966Z" fill="black"/>
<path d="M50.931 72.8966H54.069V76.0345H50.931V72.8966Z" fill="black"/>
<path d="M54.069 72.8966H57.2069V76.0345H54.069V72.8966Z" fill="black"/>
<path d="M60.3448 72.8966H63.4828V76.0345H60.3448V72.8966Z" fill="black"/>
<path d="M66.6207 72.8966H69.7586V76.0345H66.6207V72.8966Z" fill="black"/>
<path d="M69.7586 72.8966H72.8966V76.0345H69.7586V72.8966Z" fill="black"/>
<path d="M82.3103 72.8966H85.4483V76.0345H82.3103V72.8966Z" fill="black"/>
<path d="M85.4483 72.8966H88.5862V76.0345H85.4483V72.8966Z" fill="black"/>
<path d="M94.8621 72.8966H98V76.0345H94.8621V72.8966Z" fill="black"/>
<path d="M7 76.0345H10.1379V79.1724H7V76.0345Z" fill="black"/>
<path d="M10.1379 76.0345H13.2759V79.1724H10.1379V76.0345Z" fill="black"/>
<path d="M13.2759 76.0345H16.4138V79.1724H13.2759V76.0345Z" fill="black"/>
<path d="M16.4138 76.0345H19.5517V79.1724H16.4138V76.0345Z" fill="black"/>
<path d="M19.5517 76.0345H22.6897V79.1724H19.5517V76.0345Z" fill="black"/>
<path d="M22.6897 76.0345H25.8276V79.1724H22.6897V76.0345Z" fill="black"/>
<path d="M25.8276 76.0345H28.9655V79.1724H25.8276V76.0345Z" fill="black"/>
<path d="M32.1034 76.0345H35.2414V79.1724H32.1034V76.0345Z" fill="black"/>
<path d="M47.7931 76.0345H50.931V79.1724H47.7931V76.0345Z" fill="black"/>
<path d="M54.069 76.0345H57.2069V79.1724H54.069V76.0345Z" fill="black"/>
<path d="M57.2069 76.0345H60.3448V79.1724H57.2069V76.0345Z" fill="black"/>
<path d="M60.3448 76.0345H63.4828V79.1724H60.3448V76.0345Z" fill="black"/>
<path d="M69.7586 76.0345H72.8966V79.1724H69.7586V76.0345Z" fill="black"/>
<path d="M76.0345 76.0345H79.1724V79.1724H76.0345V76.0345Z" fill="black"/>
<path d="M82.3103 76.0345H85.4483V79.1724H82.3103V76.0345Z" fill="black"/>
<path d="M85.4483 76.0345H88.5862V79.1724H85.4483V76.0345Z" fill="black"/>
<path d="M88.5862 76.0345H91.7241V79.1724H88.5862V76.0345Z" fill="black"/>
<path d="M94.8621 76.0345H98V79.1724H94.8621V76.0345Z" fill="black"/>
<path d="M7 79.1724H10.1379V82.3103H7V79.1724Z" fill="black"/>
<path d="M25.8276 79.1724H28.9655V82.3103H25.8276V79.1724Z" fill="black"/>
<path d="M32.1034 79.1724H35.2414V82.3103H32.1034V79.1724Z" fill="black"/>
<path d="M38.3793 79.1724H41.5172V82.3103H38.3793V79.1724Z" fill="black"/>
<path d="M44.6552 79.1724H47.7931V82.3103H44.6552V79.1724Z" fill="black"/>
<path d="M47.7931 79.1724H50.931V82.3103H47.7931V79.1724Z" fill="black"/>
<path d="M50.931 79.1724H54.069V82.3103H50.931V79.1724Z" fill="black"/>
<path d="M60.3448 79.1724H63.4828V82.3103H60.3448V79.1724Z" fill="black"/>
<path d="M66.6207 79.1724H69.7586V82.3103H66.6207V79.1724Z" fill="black"/>
<path d="M69.7586 79.1724H72.8966V82.3103H69.7586V79.1724Z" fill="black"/>
<path d="M82.3103 79.1724H85.4483V82.3103H82.3103V79.1724Z" fill="black"/>
<path d="M85.4483 79.1724H88.5862V82.3103H85.4483V79.1724Z" fill="black"/>
<path d="M94.8621 79.1724H98V82.3103H94.8621V79.1724Z" fill="black"/>
<path d="M7 82.3103H10.1379V85.4483H7V82.3103Z" fill="black"/>
<path d="M13.2759 82.3103H16.4138V85.4483H13.2759V82.3103Z" fill="black"/>
<path d="M16.4138 82.3103H19.5517V85.4483H16.4138V82.3103Z" fill="black"/>
<path d="M19.5517 82.3103H22.6897V85.4483H19.5517V82.3103Z" fill="black"/>
<path d="M25.8276 82.3103H28.9655V85.4483H25.8276V82.3103Z" fill="black"/>
<path d="M38.3793 82.3103H41.5172V85.4483H38.3793V82.3103Z" fill="black"/>
<path d="M41.5172 82.3103H44.6552V85.4483H41.5172V82.3103Z" fill="black"/>
<path d="M47.7931 82.3103H50.931V85.4483H47.7931V82.3103Z" fill="black"/>
<path d="M57.2069 82.3103H60.3448V85.4483H57.2069V82.3103Z" fill="black"/>
<path d="M63.4828 82.3103H66.6207V85.4483H63.4828V82.3103Z" fill="black"/>
<path d="M66.6207 82.3103H69.7586V85.4483H66.6207V82.3103Z" fill="black"/>
<path d="M69.7586 82.3103H72.8966V85.4483H69.7586V82.3103Z" fill="black"/>
<path d="M72.8966 82.3103H76.0345V85.4483H72.8966V82.3103Z" fill="black"/>
<path d="M76.0345 82.3103H79.1724V85.4483H76.0345V82.3103Z" fill="black"/>
<path d="M79.1724 82.3103H82.3103V85.4483H79.1724V82.3103Z" fill="black"/>
<path d="M82.3103 82.3103H85.4483V85.4483H82.3103V82.3103Z" fill="black"/>
<path d="M7 85.4483H10.1379V88.5862H7V85.4483Z" fill="black"/>
<path d="M13.2759 85.4483H16.4138V88.5862H13.2759V85.4483Z" fill="black"/>
<path d="M16.4138 85.4483H19.5517V88.5862H16.4138V85.4483Z" fill="black"/>
<path d="M19.5517 85.4483H22.6897V88.5862H19.5517V85.4483Z" fill="black"/>
<path d="M25.8276 85.4483H28.9655V88.5862H25.8276V85.4483Z" fill="black"/>
<path d="M35.2414 85.4483H38.3793V88.5862H35.2414V85.4483Z" fill="black"/>
<path d="M38.3793 85.4483H41.5172V88.5862H38.3793V85.4483Z" fill="black"/>
<path d="M41.5172 85.4483H44.6552V88.5862H41.5172V85.4483Z" fill="black"/>
<path d="M47.7931 85.4483H50.931V88.5862H47.7931V85.4483Z" fill="black"/>
<path d="M50.931 85.4483H54.069V88.5862H50.931V85.4483Z" fill="black"/>
<path d="M54.069 85.4483H57.2069V88.5862H54.069V85.4483Z" fill="black"/>
<path d="M57.2069 85.4483H60.3448V88.5862H57.2069V85.4483Z" fill="black"/>
<path d="M60.3448 85.4483H63.4828V88.5862H60.3448V85.4483Z" fill="black"/>
<path d="M66.6207 85.4483H69.7586V88.5862H66.6207V85.4483Z" fill="black"/>
<path d="M69.7586 85.4483H72.8966V88.5862H69.7586V85.4483Z" fill="black"/>
<path d="M79.1724 85.4483H82.3103V88.5862H79.1724V85.4483Z" fill="black"/>
<path d="M82.3103 85.4483H85.4483V88.5862H82.3103V85.4483Z" fill="black"/>
<path d="M85.4483 85.4483H88.5862V88.5862H85.4483V85.4483Z" fill="black"/>
<path d="M88.5862 85.4483H91.7241V88.5862H88.5862V85.4483Z" fill="black"/>
<path d="M91.7241 85.4483H94.8621V88.5862H91.7241V85.4483Z" fill="black"/>
<path d="M7 88.5862H10.1379V91.7241H7V88.5862Z" fill="black"/>
<path d="M13.2759 88.5862H16.4138V91.7241H13.2759V88.5862Z" fill="black"/>
<path d="M16.4138 88.5862H19.5517V91.7241H16.4138V88.5862Z" fill="black"/>
<path d="M19.5517 88.5862H22.6897V91.7241H19.5517V88.5862Z" fill="black"/>
<path d="M25.8276 88.5862H28.9655V91.7241H25.8276V88.5862Z" fill="black"/>
<path d="M32.1034 88.5862H35.2414V91.7241H32.1034V88.5862Z" fill="black"/>
<path d="M35.2414 88.5862H38.3793V91.7241H35.2414V88.5862Z" fill="black"/>
<path d="M38.3793 88.5862H41.5172V91.7241H38.3793V88.5862Z" fill="black"/>
<path d="M41.5172 88.5862H44.6552V91.7241H41.5172V88.5862Z" fill="black"/>
<path d="M50.931 88.5862H54.069V91.7241H50.931V88.5862Z" fill="black"/>
<path d="M72.8966 88.5862H76.0345V91.7241H72.8966V88.5862Z" fill="black"/>
<path d="M82.3103 88.5862H85.4483V91.7241H82.3103V88.5862Z" fill="black"/>
<path d="M88.5862 88.5862H91.7241V91.7241H88.5862V88.5862Z" fill="black"/>
<path d="M91.7241 88.5862H94.8621V91.7241H91.7241V88.5862Z" fill="black"/>
<path d="M94.8621 88.5862H98V91.7241H94.8621V88.5862Z" fill="black"/>
<path d="M7 91.7241H10.1379V94.8621H7V91.7241Z" fill="black"/>
<path d="M25.8276 91.7241H28.9655V94.8621H25.8276V91.7241Z" fill="black"/>
<path d="M44.6552 91.7241H47.7931V94.8621H44.6552V91.7241Z" fill="black"/>
<path d="M50.931 91.7241H54.069V94.8621H50.931V91.7241Z" fill="black"/>
<path d="M57.2069 91.7241H60.3448V94.8621H57.2069V91.7241Z" fill="black"/>
<path d="M63.4828 91.7241H66.6207V94.8621H63.4828V91.7241Z" fill="black"/>
<path d="M69.7586 91.7241H72.8966V94.8621H69.7586V91.7241Z" fill="black"/>
<path d="M72.8966 91.7241H76.0345V94.8621H72.8966V91.7241Z" fill="black"/>
<path d="M76.0345 91.7241H79.1724V94.8621H76.0345V91.7241Z" fill="black"/>
<path d="M85.4483 91.7241H88.5862V94.8621H85.4483V91.7241Z" fill="black"/>
<path d="M7 94.8621H10.1379V98H7V94.8621Z" fill="black"/>
<path d="M10.1379 94.8621H13.2759V98H10.1379V94.8621Z" fill="black"/>
<path d="M13.2759 94.8621H16.4138V98H13.2759V94.8621Z" fill="black"/>
<path d="M16.4138 94.8621H19.5517V98H16.4138V94.8621Z" fill="black"/>
<path d="M19.5517 94.8621H22.6897V98H19.5517V94.8621Z" fill="black"/>
<path d="M22.6897 94.8621H25.8276V98H22.6897V94.8621Z" fill="black"/>
<path d="M25.8276 94.8621H28.9655V98H25.8276V94.8621Z" fill="black"/>
<path d="M38.3793 94.8621H41.5172V98H38.3793V94.8621Z" fill="black"/>
<path d="M41.5172 94.8621H44.6552V98H41.5172V94.8621Z" fill="black"/>
<path d="M44.6552 94.8621H47.7931V98H44.6552V94.8621Z" fill="black"/>
<path d="M50.931 94.8621H54.069V98H50.931V94.8621Z" fill="black"/>
<path d="M54.069 94.8621H57.2069V98H54.069V94.8621Z" fill="black"/>
<path d="M69.7586 94.8621H72.8966V98H69.7586V94.8621Z" fill="black"/>
<path d="M79.1724 94.8621H82.3103V98H79.1724V94.8621Z" fill="black"/>
<path d="M82.3103 94.8621H85.4483V98H82.3103V94.8621Z" fill="black"/>
<path d="M85.4483 94.8621H88.5862V98H85.4483V94.8621Z" fill="black"/>
<path d="M94.8621 94.8621H98V98H94.8621V94.8621Z" fill="black"/>
<path d="M10.1379 7H7V10.1379M10.1379 7V10.1379M10.1379 7H13.2759M10.1379 10.1379H7M10.1379 10.1379H13.2759M10.1379 10.1379V13.2759M7 10.1379V13.2759M13.2759 7V10.1379M13.2759 7H16.4138M13.2759 10.1379H16.4138M16.4138 7V10.1379M16.4138 7H19.5517M16.4138 10.1379H19.5517M19.5517 7V10.1379M19.5517 7H22.6897M19.5517 10.1379H22.6897M22.6897 7V10.1379M22.6897 7H25.8276M22.6897 10.1379H25.8276M25.8276 7V10.1379M25.8276 7H28.9655V10.1379M25.8276 10.1379H28.9655M25.8276 10.1379V13.2759M28.9655 10.1379V13.2759M38.3793 10.1379V7H35.2414V10.1379M38.3793 10.1379H35.2414M38.3793 10.1379V13.2759M38.3793 10.1379H41.5172M35.2414 10.1379H32.1034V13.2759M35.2414 10.1379V13.2759M44.6552 7H41.5172V10.1379M44.6552 7V10.1379M44.6552 7H47.7931M44.6552 10.1379H41.5172M44.6552 10.1379H47.7931M41.5172 10.1379V13.2759M47.7931 7V10.1379M47.7931 7H50.931V10.1379H47.7931M60.3448 7H57.2069V10.1379H60.3448M60.3448 7V10.1379M60.3448 7H63.4828V10.1379M60.3448 10.1379H63.4828M60.3448 10.1379V13.2759M63.4828 10.1379V13.2759M63.4828 10.1379H66.6207M69.7586 7H66.6207V10.1379M69.7586 7V10.1379M69.7586 7H72.8965V10.1379M69.7586 10.1379H66.6207M69.7586 10.1379H72.8965M69.7586 10.1379V13.2759M66.6207 10.1379V13.2759M72.8965 10.1379V13.2759M79.1724 7H76.0345V10.1379M79.1724 7V10.1379M79.1724 7H82.3103M79.1724 10.1379H76.0345M79.1724 10.1379H82.3103M79.1724 10.1379V13.2759M76.0345 10.1379V13.2759M82.3103 7V10.1379M82.3103 7H85.4483M82.3103 10.1379H85.4483M85.4483 7V10.1379M85.4483 7H88.5862M85.4483 10.1379H88.5862M88.5862 7V10.1379M88.5862 7H91.7241M88.5862 10.1379H91.7241M91.7241 7V10.1379M91.7241 7H94.8621M91.7241 10.1379H94.8621M94.8621 7V10.1379M94.8621 7H98V10.1379M94.8621 10.1379H98M94.8621 10.1379V13.2759M98 10.1379V13.2759M10.1379 13.2759H7M10.1379 13.2759V16.4138M7 13.2759V16.4138M28.9655 13.2759H25.8276M28.9655 13.2759V16.4138M25.8276 13.2759V16.4138M35.2414 13.2759H32.1034M35.2414 13.2759H38.3793M35.2414 13.2759V16.4138M32.1034 13.2759V16.4138M38.3793 13.2759H41.5172M38.3793 13.2759V16.4138M41.5172 13.2759V16.4138M41.5172 13.2759H44.6552V16.4138H41.5172M63.4828 13.2759H60.3448M63.4828 13.2759H66.6207M63.4828 13.2759V16.4138M60.3448 13.2759V16.4138M66.6207 13.2759H69.7586M66.6207 13.2759V16.4138H69.7586M72.8965 13.2759H69.7586M72.8965 13.2759V16.4138M69.7586 13.2759V16.4138M79.1724 13.2759H76.0345M79.1724 13.2759V16.4138M76.0345 13.2759V16.4138M98 13.2759H94.8621M98 13.2759V16.4138M94.8621 13.2759V16.4138M10.1379 16.4138H7M10.1379 16.4138V19.5517M7 16.4138V19.5517M16.4138 13.2759H13.2759V16.4138M16.4138 13.2759V16.4138M16.4138 13.2759H19.5517M16.4138 16.4138H13.2759M16.4138 16.4138H19.5517M16.4138 16.4138V19.5517M13.2759 16.4138V19.5517M19.5517 13.2759V16.4138M19.5517 13.2759H22.6897V16.4138M19.5517 16.4138H22.6897M19.5517 16.4138V19.5517M22.6897 16.4138V19.5517M28.9655 16.4138H25.8276M28.9655 16.4138V19.5517M25.8276 16.4138V19.5517M35.2414 16.4138H32.1034M35.2414 16.4138H38.3793M35.2414 16.4138V19.5517M32.1034 16.4138V19.5517M38.3793 16.4138H41.5172M50.931 16.4138V13.2759H47.7931V16.4138M50.931 16.4138H47.7931M50.931 16.4138V19.5517M47.7931 16.4138V19.5517M63.4828 16.4138H60.3448M63.4828 16.4138V19.5517M60.3448 16.4138V19.5517M69.7586 16.4138H72.8965M69.7586 16.4138V19.5517H72.8965V16.4138M79.1724 16.4138H76.0345M79.1724 16.4138V19.5517M76.0345 16.4138V19.5517M85.4483 13.2759H82.3103V16.4138M85.4483 13.2759V16.4138M85.4483 13.2759H88.5862M85.4483 16.4138H82.3103M85.4483 16.4138H88.5862M85.4483 16.4138V19.5517M82.3103 16.4138V19.5517M88.5862 13.2759V16.4138M88.5862 13.2759H91.7241V16.4138M88.5862 16.4138H91.7241M88.5862 16.4138V19.5517M91.7241 16.4138V19.5517M98 16.4138H94.8621M98 16.4138V19.5517M94.8621 16.4138V19.5517M10.1379 19.5517H7M10.1379 19.5517V22.6897M7 19.5517V22.6897M16.4138 19.5517H13.2759M16.4138 19.5517H19.5517M16.4138 19.5517V22.6897M13.2759 19.5517V22.6897H16.4138M19.5517 19.5517H22.6897M19.5517 19.5517V22.6897M22.6897 19.5517V22.6897H19.5517M28.9655 19.5517H25.8276M28.9655 19.5517V22.6897M25.8276 19.5517V22.6897M35.2414 19.5517H32.1034M35.2414 19.5517V22.6897M35.2414 19.5517H38.3793M32.1034 19.5517V22.6897M50.931 19.5517H47.7931M50.931 19.5517H54.069V22.6897M50.931 19.5517V22.6897M47.7931 19.5517H44.6552V22.6897M47.7931 19.5517V22.6897M63.4828 19.5517H60.3448M63.4828 19.5517H66.6207V22.6897M63.4828 19.5517V22.6897M60.3448 19.5517H57.2069V22.6897M60.3448 19.5517V22.6897M79.1724 19.5517H76.0345M79.1724 19.5517V22.6897M76.0345 19.5517V22.6897M85.4483 19.5517H82.3103M85.4483 19.5517H88.5862M85.4483 19.5517V22.6897M82.3103 19.5517V22.6897H85.4483M88.5862 19.5517H91.7241M88.5862 19.5517V22.6897M91.7241 19.5517V22.6897H88.5862M98 19.5517H94.8621M98 19.5517V22.6897M94.8621 19.5517V22.6897M10.1379 22.6897H7M10.1379 22.6897V25.8276M7 22.6897V25.8276M16.4138 22.6897H19.5517M28.9655 22.6897H25.8276M28.9655 22.6897V25.8276M25.8276 22.6897V25.8276M35.2414 22.6897H32.1034M35.2414 22.6897H38.3793M35.2414 22.6897V25.8276M32.1034 22.6897V25.8276M38.3793 19.5517V22.6897M38.3793 19.5517H41.5172V22.6897M38.3793 22.6897H41.5172M38.3793 22.6897V25.8276M41.5172 22.6897V25.8276M47.7931 22.6897H44.6552M47.7931 22.6897V25.8276M44.6552 22.6897V25.8276M54.069 22.6897H50.931M54.069 22.6897V25.8276M54.069 22.6897H57.2069M50.931 22.6897V25.8276M60.3448 22.6897H57.2069M60.3448 22.6897V25.8276M60.3448 22.6897H63.4828M57.2069 22.6897V25.8276M66.6207 22.6897H63.4828M66.6207 22.6897V25.8276M63.4828 22.6897V25.8276M79.1724 22.6897H76.0345M79.1724 22.6897V25.8276M76.0345 22.6897V25.8276M85.4483 22.6897H88.5862M98 22.6897H94.8621M98 22.6897V25.8276M94.8621 22.6897V25.8276M10.1379 25.8276H7M10.1379 25.8276V28.9655M10.1379 25.8276H13.2759M7 25.8276V28.9655H10.1379M28.9655 25.8276H25.8276M28.9655 25.8276V28.9655H25.8276M25.8276 25.8276H22.6897M25.8276 25.8276V28.9655M35.2414 25.8276H32.1034M35.2414 25.8276V28.9655H32.1034V25.8276M41.5172 25.8276H38.3793M41.5172 25.8276V28.9655M38.3793 25.8276V28.9655H41.5172M47.7931 25.8276H44.6552M47.7931 25.8276V28.9655M44.6552 25.8276V28.9655M54.069 25.8276H50.931M54.069 25.8276H57.2069M54.069 25.8276V28.9655M50.931 25.8276V28.9655M57.2069 25.8276H60.3448M57.2069 25.8276V28.9655M60.3448 25.8276H63.4828M60.3448 25.8276V28.9655M63.4828 25.8276H66.6207M63.4828 25.8276V28.9655M66.6207 25.8276V28.9655M72.8965 25.8276V22.6897H69.7586V25.8276M72.8965 25.8276H69.7586M72.8965 25.8276V28.9655M69.7586 25.8276V28.9655M79.1724 25.8276H76.0345M79.1724 25.8276V28.9655M79.1724 25.8276H82.3103M76.0345 25.8276V28.9655H79.1724M98 25.8276H94.8621M98 25.8276V28.9655H94.8621M94.8621 25.8276H91.7241M94.8621 25.8276V28.9655M10.1379 28.9655H13.2759M13.2759 25.8276V28.9655M13.2759 25.8276H16.4138M13.2759 28.9655H16.4138M16.4138 25.8276V28.9655M16.4138 25.8276H19.5517M16.4138 28.9655H19.5517M19.5517 25.8276V28.9655M19.5517 25.8276H22.6897M19.5517 28.9655H22.6897M22.6897 25.8276V28.9655M22.6897 28.9655H25.8276M41.5172 28.9655H44.6552M41.5172 28.9655V32.1034M47.7931 28.9655H44.6552M47.7931 28.9655V32.1034M47.7931 28.9655H50.931M44.6552 28.9655V32.1034M54.069 28.9655H50.931M54.069 28.9655H57.2069M54.069 28.9655V32.1034H57.2069M50.931 28.9655V32.1034H47.7931M60.3448 28.9655H57.2069M60.3448 28.9655V32.1034M60.3448 28.9655H63.4828M57.2069 28.9655V32.1034M66.6207 28.9655H63.4828M66.6207 28.9655H69.7586M66.6207 28.9655V32.1034M63.4828 28.9655V32.1034M72.8965 28.9655H69.7586M72.8965 28.9655V32.1034M69.7586 28.9655V32.1034M79.1724 28.9655H82.3103M82.3103 25.8276V28.9655M82.3103 25.8276H85.4483M82.3103 28.9655H85.4483M85.4483 25.8276V28.9655M85.4483 25.8276H88.5862M85.4483 28.9655H88.5862M88.5862 25.8276V28.9655M88.5862 25.8276H91.7241M88.5862 28.9655H91.7241M91.7241 25.8276V28.9655M91.7241 28.9655H94.8621M44.6552 32.1034H41.5172M44.6552 32.1034H47.7931M44.6552 32.1034V35.2414M41.5172 32.1034V35.2414H44.6552M57.2069 32.1034H60.3448M60.3448 32.1034H63.4828M60.3448 32.1034V35.2414M63.4828 32.1034V35.2414M69.7586 32.1034H66.6207M69.7586 32.1034H72.8965M69.7586 32.1034V35.2414M66.6207 32.1034V35.2414H69.7586M72.8965 32.1034V35.2414M72.8965 32.1034H76.0345V35.2414M16.4138 35.2414V32.1034H13.2759V35.2414M16.4138 35.2414H13.2759M16.4138 35.2414H19.5517M16.4138 35.2414V38.3793M13.2759 35.2414H10.1379M13.2759 35.2414V38.3793M25.8276 32.1034H22.6897V35.2414M25.8276 32.1034V35.2414M25.8276 32.1034H28.9655M25.8276 35.2414H22.6897M25.8276 35.2414H28.9655M22.6897 35.2414H19.5517M22.6897 35.2414V38.3793H19.5517M28.9655 32.1034V35.2414M28.9655 32.1034H32.1034M28.9655 35.2414H32.1034M28.9655 35.2414V38.3793M32.1034 32.1034V35.2414M32.1034 32.1034H35.2414V35.2414M32.1034 35.2414H35.2414M32.1034 35.2414V38.3793M35.2414 35.2414V38.3793H32.1034M44.6552 35.2414H47.7931V38.3793H44.6552M44.6552 35.2414V38.3793M63.4828 35.2414H60.3448M63.4828 35.2414V38.3793M60.3448 35.2414H57.2069V38.3793M60.3448 35.2414V38.3793M69.7586 35.2414H72.8965M69.7586 35.2414V38.3793M72.8965 35.2414H76.0345M72.8965 35.2414V38.3793M76.0345 35.2414H79.1724M76.0345 35.2414V38.3793M82.3103 32.1034H79.1724V35.2414M82.3103 32.1034V35.2414M82.3103 32.1034H85.4483M82.3103 35.2414H79.1724M82.3103 35.2414H85.4483M82.3103 35.2414V38.3793M79.1724 35.2414V38.3793M85.4483 32.1034V35.2414M85.4483 32.1034H88.5862M85.4483 35.2414H88.5862M88.5862 32.1034V35.2414M88.5862 32.1034H91.7241M88.5862 35.2414H91.7241M88.5862 35.2414V38.3793M91.7241 32.1034V35.2414M91.7241 32.1034H94.8621V35.2414M91.7241 35.2414H94.8621M91.7241 35.2414V38.3793M94.8621 35.2414V38.3793M94.8621 35.2414H98V38.3793M10.1379 35.2414H7V38.3793M10.1379 35.2414V38.3793M10.1379 38.3793H7M10.1379 38.3793H13.2759M10.1379 38.3793V41.5172M7 38.3793V41.5172M13.2759 38.3793V41.5172M13.2759 38.3793H16.4138M19.5517 35.2414V38.3793M19.5517 38.3793H16.4138M19.5517 38.3793V41.5172M16.4138 38.3793V41.5172M32.1034 38.3793H28.9655M32.1034 38.3793V41.5172M28.9655 38.3793H25.8276V41.5172M28.9655 38.3793V41.5172M44.6552 38.3793H41.5172M44.6552 38.3793V41.5172M60.3448 38.3793H57.2069M60.3448 38.3793H63.4828M57.2069 38.3793H54.069M57.2069 38.3793V41.5172M63.4828 38.3793H66.6207V41.5172M63.4828 38.3793V41.5172H66.6207M72.8965 38.3793H69.7586M72.8965 38.3793V41.5172M72.8965 38.3793H76.0345M69.7586 38.3793V41.5172M79.1724 38.3793H76.0345M79.1724 38.3793H82.3103M79.1724 38.3793V41.5172M76.0345 38.3793V41.5172M82.3103 38.3793V41.5172M91.7241 38.3793H88.5862M91.7241 38.3793H94.8621M91.7241 38.3793V41.5172H88.5862M88.5862 38.3793V41.5172M94.8621 38.3793H98M94.8621 38.3793V41.5172H98V38.3793M10.1379 41.5172H7M10.1379 41.5172H13.2759M10.1379 41.5172V44.6552M7 41.5172V44.6552M13.2759 41.5172H16.4138M16.4138 41.5172H19.5517M16.4138 41.5172V44.6552M19.5517 41.5172V44.6552M28.9655 41.5172H25.8276M28.9655 41.5172H32.1034M25.8276 41.5172H22.6897V44.6552M25.8276 41.5172V44.6552M32.1034 41.5172H35.2414V44.6552M32.1034 41.5172V44.6552M41.5172 38.3793H38.3793V41.5172H41.5172M41.5172 38.3793V41.5172M41.5172 41.5172H44.6552M41.5172 41.5172V44.6552H44.6552V41.5172M54.069 38.3793H50.931V41.5172M54.069 38.3793V41.5172M54.069 41.5172H50.931M54.069 41.5172H57.2069M54.069 41.5172V44.6552M50.931 41.5172V44.6552H54.069M57.2069 41.5172H60.3448V44.6552M57.2069 41.5172V44.6552M66.6207 41.5172H69.7586M66.6207 41.5172V44.6552M72.8965 41.5172H69.7586M72.8965 41.5172H76.0345M72.8965 41.5172V44.6552M69.7586 41.5172V44.6552M76.0345 41.5172H79.1724M76.0345 41.5172V44.6552M82.3103 41.5172H79.1724M82.3103 41.5172V44.6552M82.3103 41.5172H85.4483M79.1724 41.5172V44.6552M88.5862 41.5172H85.4483M88.5862 41.5172V44.6552M10.1379 44.6552H7M10.1379 44.6552V47.7931M7 44.6552V47.7931M19.5517 44.6552H16.4138M19.5517 44.6552V47.7931M16.4138 44.6552H13.2759V47.7931H16.4138M16.4138 44.6552V47.7931M25.8276 44.6552H22.6897M25.8276 44.6552V47.7931M25.8276 44.6552H28.9655V47.7931H25.8276M22.6897 44.6552V47.7931M35.2414 44.6552H32.1034M35.2414 44.6552V47.7931M32.1034 44.6552V47.7931H35.2414M54.069 44.6552H57.2069M54.069 44.6552V47.7931M60.3448 44.6552H57.2069M60.3448 44.6552H63.4828M60.3448 44.6552V47.7931H63.4828M57.2069 44.6552V47.7931H54.069M69.7586 44.6552H66.6207M69.7586 44.6552H72.8965M66.6207 44.6552H63.4828M66.6207 44.6552V47.7931M72.8965 44.6552H76.0345M72.8965 44.6552V47.7931M79.1724 44.6552H76.0345M79.1724 44.6552H82.3103M79.1724 44.6552V47.7931M76.0345 44.6552V47.7931M82.3103 44.6552H85.4483M85.4483 41.5172V44.6552M85.4483 44.6552H88.5862M85.4483 44.6552V47.7931M88.5862 44.6552V47.7931M10.1379 47.7931H7M10.1379 47.7931V50.931M7 47.7931V50.931M16.4138 47.7931H19.5517M19.5517 47.7931H22.6897M19.5517 47.7931V50.931H22.6897M25.8276 47.7931H22.6897M25.8276 47.7931V50.931M22.6897 47.7931V50.931M35.2414 47.7931H38.3793M35.2414 47.7931V50.931M54.069 47.7931H50.931M54.069 47.7931V50.931M63.4828 44.6552V47.7931M63.4828 47.7931H66.6207M63.4828 47.7931V50.931M66.6207 47.7931V50.931M66.6207 47.7931H69.7586M76.0345 47.7931H72.8965M76.0345 47.7931H79.1724M76.0345 47.7931V50.931M72.8965 47.7931H69.7586M72.8965 47.7931V50.931M79.1724 47.7931V50.931M88.5862 47.7931H85.4483M88.5862 47.7931V50.931M85.4483 47.7931V50.931M94.8621 47.7931V44.6552H91.7241V47.7931H94.8621ZM94.8621 47.7931H98V50.931M94.8621 47.7931V50.931M10.1379 50.931H7M10.1379 50.931V54.069M10.1379 50.931H13.2759V54.069H10.1379M7 50.931V54.069M22.6897 50.931H25.8276M22.6897 50.931V54.069M25.8276 50.931V54.069M25.8276 50.931H28.9655V54.069M38.3793 47.7931V50.931M38.3793 47.7931H41.5172V50.931M38.3793 50.931H35.2414M38.3793 50.931H41.5172M38.3793 50.931V54.069M35.2414 50.931V54.069M41.5172 50.931V54.069M50.931 47.7931H47.7931V50.931M50.931 47.7931V50.931M50.931 50.931H47.7931M50.931 50.931H54.069M50.931 50.931V54.069M47.7931 50.931V54.069M54.069 50.931H57.2069M54.069 50.931V54.069H57.2069M66.6207 50.931H63.4828M66.6207 50.931H69.7586M66.6207 50.931V54.069M63.4828 50.931H60.3448M63.4828 50.931V54.069M69.7586 47.7931V50.931M69.7586 50.931H72.8965M69.7586 50.931V54.069M72.8965 50.931H76.0345M72.8965 50.931V54.069M79.1724 50.931H76.0345M79.1724 50.931V54.069M76.0345 50.931V54.069M88.5862 50.931H85.4483M88.5862 50.931V54.069M88.5862 50.931H91.7241V54.069H88.5862M85.4483 50.931V54.069M98 50.931H94.8621M98 50.931V54.069M94.8621 50.931V54.069M10.1379 54.069H7M10.1379 54.069V57.2069H7V54.069M25.8276 54.069H22.6897M25.8276 54.069H28.9655M25.8276 54.069V57.2069M22.6897 54.069V57.2069H25.8276M28.9655 54.069H32.1034M28.9655 54.069V57.2069M38.3793 54.069H35.2414M38.3793 54.069H41.5172M38.3793 54.069V57.2069M35.2414 54.069H32.1034M35.2414 54.069V57.2069M41.5172 54.069V57.2069M41.5172 54.069H44.6552M50.931 54.069H47.7931M50.931 54.069V57.2069M47.7931 54.069H44.6552M47.7931 54.069V57.2069M57.2069 50.931V54.069M57.2069 50.931H60.3448M57.2069 54.069H60.3448M60.3448 50.931V54.069M60.3448 54.069H63.4828M63.4828 54.069H66.6207M66.6207 54.069H69.7586M66.6207 54.069V57.2069M69.7586 54.069V57.2069M69.7586 54.069H72.8965M76.0345 54.069H72.8965M76.0345 54.069H79.1724M76.0345 54.069V57.2069M72.8965 54.069V57.2069M79.1724 54.069V57.2069M88.5862 54.069H85.4483M88.5862 54.069V57.2069H85.4483V54.069M98 54.069H94.8621M98 54.069V57.2069M94.8621 54.069V57.2069M19.5517 57.2069V54.069H16.4138V57.2069M19.5517 57.2069H16.4138M19.5517 57.2069V60.3448M16.4138 57.2069V60.3448H19.5517M25.8276 57.2069H28.9655M25.8276 57.2069V60.3448M32.1034 54.069V57.2069M32.1034 57.2069H28.9655M32.1034 57.2069H35.2414M32.1034 57.2069V60.3448M28.9655 57.2069V60.3448M35.2414 57.2069H38.3793M35.2414 57.2069V60.3448M38.3793 57.2069H41.5172M38.3793 57.2069V60.3448M41.5172 57.2069H44.6552M41.5172 57.2069V60.3448M44.6552 54.069V57.2069M44.6552 57.2069H47.7931M44.6552 57.2069V60.3448M47.7931 57.2069H50.931M50.931 57.2069H54.069M50.931 57.2069V60.3448M69.7586 57.2069H66.6207M69.7586 57.2069H72.8965M69.7586 57.2069V60.3448M66.6207 57.2069V60.3448H69.7586M72.8965 57.2069H76.0345M72.8965 57.2069V60.3448H69.7586M76.0345 57.2069H79.1724M76.0345 57.2069V60.3448M79.1724 57.2069V60.3448M79.1724 57.2069H82.3103V60.3448H79.1724M98 57.2069H94.8621M98 57.2069V60.3448M94.8621 57.2069V60.3448M19.5517 60.3448H22.6897M19.5517 60.3448V63.4828H22.6897M28.9655 60.3448H25.8276M28.9655 60.3448H32.1034M28.9655 60.3448V63.4828M25.8276 60.3448H22.6897M25.8276 60.3448V63.4828M32.1034 60.3448V63.4828M32.1034 60.3448H35.2414M38.3793 60.3448H35.2414M38.3793 60.3448H41.5172M38.3793 60.3448V63.4828H41.5172M35.2414 60.3448V63.4828M41.5172 60.3448H44.6552M41.5172 60.3448V63.4828M44.6552 60.3448V63.4828M44.6552 60.3448H47.7931M54.069 57.2069V60.3448M54.069 57.2069H57.2069M54.069 60.3448H50.931M54.069 60.3448H57.2069M54.069 60.3448V63.4828H50.931M50.931 60.3448H47.7931M50.931 60.3448V63.4828M57.2069 57.2069V60.3448M57.2069 57.2069H60.3448M57.2069 60.3448H60.3448M57.2069 60.3448V63.4828M60.3448 57.2069V60.3448M60.3448 57.2069H63.4828V60.3448M60.3448 60.3448H63.4828M60.3448 60.3448V63.4828M63.4828 60.3448V63.4828M79.1724 60.3448H76.0345M79.1724 60.3448V63.4828H76.0345V60.3448M98 60.3448H94.8621M98 60.3448V63.4828M94.8621 60.3448V63.4828M22.6897 60.3448V63.4828M22.6897 63.4828H25.8276M22.6897 63.4828V66.6207M25.8276 63.4828V66.6207M25.8276 63.4828H28.9655M32.1034 63.4828H28.9655M32.1034 63.4828H35.2414M32.1034 63.4828V66.6207M28.9655 63.4828V66.6207H25.8276M35.2414 63.4828V66.6207M41.5172 63.4828H44.6552M41.5172 63.4828V66.6207M44.6552 63.4828H47.7931M44.6552 63.4828V66.6207M47.7931 60.3448V63.4828M47.7931 63.4828H50.931M47.7931 63.4828V66.6207M60.3448 63.4828H57.2069M60.3448 63.4828H63.4828M60.3448 63.4828V66.6207M57.2069 63.4828V66.6207M63.4828 63.4828H66.6207M63.4828 63.4828V66.6207M85.4483 63.4828H88.5862V60.3448H85.4483V63.4828ZM85.4483 63.4828H82.3103V66.6207H85.4483M85.4483 63.4828V66.6207M98 63.4828H94.8621M98 63.4828V66.6207H94.8621M94.8621 63.4828V66.6207M10.1379 63.4828H7V66.6207H10.1379M10.1379 63.4828V66.6207M10.1379 63.4828H13.2759V66.6207M10.1379 66.6207H13.2759M13.2759 66.6207H16.4138M13.2759 66.6207V69.7586M25.8276 66.6207H22.6897M25.8276 66.6207V69.7586M22.6897 66.6207V69.7586M35.2414 66.6207H32.1034M35.2414 66.6207V69.7586M35.2414 66.6207H38.3793M32.1034 66.6207V69.7586M44.6552 66.6207H41.5172M44.6552 66.6207H47.7931M44.6552 66.6207V69.7586M41.5172 66.6207H38.3793M41.5172 66.6207V69.7586M47.7931 66.6207V69.7586M47.7931 66.6207H50.931M60.3448 66.6207H57.2069M60.3448 66.6207V69.7586H57.2069V66.6207M66.6207 63.4828V66.6207M66.6207 63.4828H69.7586V66.6207M66.6207 66.6207H63.4828M66.6207 66.6207H69.7586M66.6207 66.6207V69.7586H63.4828V66.6207M69.7586 66.6207H72.8965M69.7586 66.6207V69.7586M85.4483 66.6207H88.5862V69.7586M85.4483 66.6207V69.7586M94.8621 66.6207H91.7241V69.7586H94.8621M94.8621 66.6207V69.7586M16.4138 66.6207V69.7586M16.4138 66.6207H19.5517V69.7586M16.4138 69.7586H13.2759M16.4138 69.7586H19.5517M16.4138 69.7586V72.8965M13.2759 69.7586H10.1379M13.2759 69.7586V72.8965M19.5517 69.7586V72.8965M19.5517 69.7586H22.6897M25.8276 69.7586H22.6897M25.8276 69.7586V72.8965M25.8276 69.7586H28.9655M22.6897 69.7586V72.8965M35.2414 69.7586H32.1034M35.2414 69.7586H38.3793M32.1034 69.7586H28.9655M32.1034 69.7586V72.8965M38.3793 66.6207V69.7586M38.3793 69.7586H41.5172M38.3793 69.7586V72.8965M41.5172 69.7586H44.6552M41.5172 69.7586V72.8965M44.6552 69.7586H47.7931M44.6552 69.7586V72.8965M47.7931 69.7586H50.931M47.7931 69.7586V72.8965H44.6552M50.931 66.6207V69.7586M50.931 66.6207H54.069V69.7586H50.931M72.8965 66.6207V69.7586M72.8965 66.6207H76.0345M72.8965 69.7586H69.7586M72.8965 69.7586H76.0345M72.8965 69.7586V72.8965M69.7586 69.7586V72.8965M76.0345 66.6207V69.7586M76.0345 66.6207H79.1724V69.7586M76.0345 69.7586H79.1724M76.0345 69.7586V72.8965M79.1724 69.7586V72.8965M79.1724 69.7586H82.3103M88.5862 69.7586H85.4483M88.5862 69.7586V72.8965M85.4483 69.7586H82.3103M85.4483 69.7586V72.8965M94.8621 69.7586H98V72.8965M94.8621 69.7586V72.8965M10.1379 69.7586H7V72.8965H10.1379M10.1379 69.7586V72.8965M10.1379 72.8965H13.2759M13.2759 72.8965H16.4138M16.4138 72.8965H19.5517M19.5517 72.8965H22.6897M22.6897 72.8965H25.8276M25.8276 72.8965H28.9655M28.9655 69.7586V72.8965M28.9655 72.8965H32.1034M32.1034 72.8965H35.2414M32.1034 72.8965V76.0345M41.5172 72.8965H38.3793M41.5172 72.8965H44.6552M41.5172 72.8965V76.0345M38.3793 72.8965H35.2414M38.3793 72.8965V76.0345M44.6552 72.8965V76.0345H41.5172M72.8965 72.8965H69.7586M72.8965 72.8965H76.0345M72.8965 72.8965V76.0345M69.7586 72.8965H66.6207V76.0345H69.7586M69.7586 72.8965V76.0345M76.0345 72.8965H79.1724M79.1724 72.8965H82.3103M82.3103 69.7586V72.8965M82.3103 72.8965H85.4483M82.3103 72.8965V76.0345M85.4483 72.8965H88.5862M85.4483 72.8965V76.0345M88.5862 72.8965V76.0345M98 72.8965H94.8621M98 72.8965V76.0345M94.8621 72.8965V76.0345M35.2414 72.8965V76.0345M35.2414 76.0345H32.1034M35.2414 76.0345H38.3793M35.2414 76.0345V79.1724M32.1034 76.0345V79.1724M38.3793 76.0345H41.5172M54.069 72.8965H50.931V76.0345M54.069 72.8965V76.0345M54.069 72.8965H57.2069V76.0345M54.069 76.0345H50.931M54.069 76.0345H57.2069M54.069 76.0345V79.1724M50.931 76.0345H47.7931V79.1724M50.931 76.0345V79.1724M57.2069 76.0345V79.1724M57.2069 76.0345H60.3448M63.4828 76.0345V72.8965H60.3448V76.0345M63.4828 76.0345H60.3448M63.4828 76.0345V79.1724M60.3448 76.0345V79.1724M69.7586 76.0345H72.8965M69.7586 76.0345V79.1724M72.8965 76.0345V79.1724M85.4483 76.0345H82.3103M85.4483 76.0345H88.5862M85.4483 76.0345V79.1724M82.3103 76.0345V79.1724M88.5862 76.0345V79.1724M88.5862 76.0345H91.7241V79.1724H88.5862M98 76.0345H94.8621M98 76.0345V79.1724M94.8621 76.0345V79.1724M10.1379 76.0345H7V79.1724M10.1379 76.0345V79.1724M10.1379 76.0345H13.2759M10.1379 79.1724H7M10.1379 79.1724H13.2759M10.1379 79.1724V82.3103M7 79.1724V82.3103M13.2759 76.0345V79.1724M13.2759 76.0345H16.4138M13.2759 79.1724H16.4138M16.4138 76.0345V79.1724M16.4138 76.0345H19.5517M16.4138 79.1724H19.5517M19.5517 76.0345V79.1724M19.5517 76.0345H22.6897M19.5517 79.1724H22.6897M22.6897 76.0345V79.1724M22.6897 76.0345H25.8276M22.6897 79.1724H25.8276M25.8276 76.0345V79.1724M25.8276 76.0345H28.9655V79.1724M25.8276 79.1724H28.9655M25.8276 79.1724V82.3103M28.9655 79.1724V82.3103M35.2414 79.1724H32.1034M35.2414 79.1724V82.3103H32.1034V79.1724M50.931 79.1724H47.7931M50.931 79.1724V82.3103M50.931 79.1724H54.069M47.7931 79.1724H44.6552V82.3103M47.7931 79.1724V82.3103M57.2069 79.1724H54.069M57.2069 79.1724H60.3448M54.069 79.1724V82.3103H50.931M60.3448 79.1724H63.4828M60.3448 79.1724V82.3103M63.4828 79.1724V82.3103M72.8965 79.1724H69.7586M72.8965 79.1724V82.3103M69.7586 79.1724H66.6207V82.3103M69.7586 79.1724V82.3103M85.4483 79.1724H82.3103M85.4483 79.1724H88.5862M85.4483 79.1724V82.3103M82.3103 79.1724V82.3103M88.5862 79.1724V82.3103H85.4483M98 79.1724H94.8621M98 79.1724V82.3103H94.8621V79.1724M10.1379 82.3103H7M10.1379 82.3103V85.4483M7 82.3103V85.4483M28.9655 82.3103H25.8276M28.9655 82.3103V85.4483M25.8276 82.3103V85.4483M41.5172 82.3103V79.1724H38.3793V82.3103M41.5172 82.3103H38.3793M41.5172 82.3103V85.4483M41.5172 82.3103H44.6552M38.3793 82.3103V85.4483M47.7931 82.3103H44.6552M47.7931 82.3103H50.931M47.7931 82.3103V85.4483M44.6552 82.3103V85.4483M50.931 82.3103V85.4483M63.4828 82.3103H60.3448M63.4828 82.3103H66.6207M63.4828 82.3103V85.4483M60.3448 82.3103H57.2069V85.4483M60.3448 82.3103V85.4483M69.7586 82.3103H66.6207M69.7586 82.3103H72.8965M69.7586 82.3103V85.4483M66.6207 82.3103V85.4483M72.8965 82.3103V85.4483M72.8965 82.3103H76.0345M85.4483 82.3103H82.3103M85.4483 82.3103V85.4483M82.3103 82.3103H79.1724M82.3103 82.3103V85.4483M10.1379 85.4483H7M10.1379 85.4483V88.5862M7 85.4483V88.5862M16.4138 82.3103H13.2759V85.4483M16.4138 82.3103V85.4483M16.4138 82.3103H19.5517M16.4138 85.4483H13.2759M16.4138 85.4483H19.5517M16.4138 85.4483V88.5862M13.2759 85.4483V88.5862M19.5517 82.3103V85.4483M19.5517 82.3103H22.6897V85.4483M19.5517 85.4483H22.6897M19.5517 85.4483V88.5862M22.6897 85.4483V88.5862M28.9655 85.4483H25.8276M28.9655 85.4483V88.5862M25.8276 85.4483V88.5862M41.5172 85.4483H38.3793M41.5172 85.4483H44.6552M41.5172 85.4483V88.5862M38.3793 85.4483H35.2414V88.5862M38.3793 85.4483V88.5862M44.6552 85.4483V88.5862M50.931 85.4483H47.7931M50.931 85.4483V88.5862M50.931 85.4483H54.069M47.7931 85.4483V88.5862H50.931M60.3448 85.4483H57.2069M60.3448 85.4483V88.5862M60.3448 85.4483H63.4828M57.2069 85.4483H54.069M57.2069 85.4483V88.5862M66.6207 85.4483H63.4828M66.6207 85.4483H69.7586M66.6207 85.4483V88.5862H69.7586M63.4828 85.4483V88.5862H60.3448M69.7586 85.4483H72.8965M69.7586 85.4483V88.5862M72.8965 85.4483H76.0345M72.8965 85.4483V88.5862M76.0345 82.3103V85.4483M76.0345 82.3103H79.1724M76.0345 85.4483H79.1724M79.1724 82.3103V85.4483M79.1724 85.4483H82.3103M79.1724 85.4483V88.5862H82.3103M82.3103 85.4483H85.4483M82.3103 85.4483V88.5862M85.4483 85.4483V88.5862M85.4483 85.4483H88.5862M10.1379 88.5862H7M10.1379 88.5862V91.7241M7 88.5862V91.7241M16.4138 88.5862H13.2759M16.4138 88.5862H19.5517M16.4138 88.5862V91.7241M13.2759 88.5862V91.7241H16.4138M19.5517 88.5862H22.6897M19.5517 88.5862V91.7241M22.6897 88.5862V91.7241H19.5517M28.9655 88.5862H25.8276M28.9655 88.5862V91.7241M25.8276 88.5862V91.7241M38.3793 88.5862H35.2414M38.3793 88.5862H41.5172M38.3793 88.5862V91.7241M35.2414 88.5862H32.1034V91.7241H35.2414M35.2414 88.5862V91.7241M41.5172 88.5862H44.6552M41.5172 88.5862V91.7241M44.6552 88.5862V91.7241M50.931 88.5862H54.069M50.931 88.5862V91.7241M54.069 85.4483V88.5862M54.069 88.5862H57.2069M54.069 88.5862V91.7241M57.2069 88.5862H60.3448M69.7586 88.5862H72.8965M72.8965 88.5862H76.0345V91.7241M72.8965 88.5862V91.7241M82.3103 88.5862H85.4483M82.3103 88.5862V91.7241H85.4483M85.4483 88.5862H88.5862M85.4483 88.5862V91.7241M88.5862 85.4483V88.5862M88.5862 85.4483H91.7241M88.5862 88.5862H91.7241M88.5862 88.5862V91.7241M91.7241 85.4483V88.5862M91.7241 85.4483H94.8621V88.5862M91.7241 88.5862H94.8621M91.7241 88.5862V91.7241M94.8621 88.5862V91.7241M94.8621 88.5862H98V91.7241H94.8621M10.1379 91.7241H7M10.1379 91.7241V94.8621M7 91.7241V94.8621M16.4138 91.7241H19.5517M28.9655 91.7241H25.8276M28.9655 91.7241V94.8621M25.8276 91.7241V94.8621M35.2414 91.7241H38.3793M38.3793 91.7241H41.5172M41.5172 91.7241H44.6552M44.6552 91.7241H47.7931V94.8621M44.6552 91.7241V94.8621M54.069 91.7241H50.931M54.069 91.7241V94.8621M50.931 91.7241V94.8621M76.0345 91.7241H72.8965M76.0345 91.7241V94.8621M76.0345 91.7241H79.1724V94.8621M72.8965 91.7241H69.7586V94.8621M72.8965 91.7241V94.8621M85.4483 91.7241H88.5862M85.4483 91.7241V94.8621M91.7241 91.7241H88.5862M91.7241 91.7241H94.8621M88.5862 91.7241V94.8621M10.1379 94.8621H7M10.1379 94.8621V98M10.1379 94.8621H13.2759M7 94.8621V98H10.1379M28.9655 94.8621H25.8276M28.9655 94.8621V98H25.8276M25.8276 94.8621H22.6897M25.8276 94.8621V98M47.7931 94.8621H44.6552M47.7931 94.8621V98H44.6552M44.6552 94.8621H41.5172M44.6552 94.8621V98M54.069 94.8621H50.931M54.069 94.8621V98M54.069 94.8621H57.2069M50.931 94.8621V98H54.069M57.2069 94.8621H60.3448V91.7241H57.2069V94.8621ZM57.2069 94.8621V98H54.069M72.8965 94.8621H69.7586M72.8965 94.8621H76.0345M72.8965 94.8621V98H69.7586V94.8621M76.0345 94.8621H79.1724M79.1724 94.8621H82.3103M79.1724 94.8621V98H82.3103M88.5862 94.8621H85.4483M88.5862 94.8621V98H85.4483M85.4483 94.8621H82.3103M85.4483 94.8621V98M10.1379 98H13.2759M13.2759 94.8621V98M13.2759 94.8621H16.4138M13.2759 98H16.4138M16.4138 94.8621V98M16.4138 94.8621H19.5517M16.4138 98H19.5517M19.5517 94.8621V98M19.5517 94.8621H22.6897M19.5517 98H22.6897M22.6897 94.8621V98M22.6897 98H25.8276M41.5172 94.8621H38.3793V98H41.5172M41.5172 94.8621V98M41.5172 98H44.6552M82.3103 94.8621V98M82.3103 98H85.4483M76.0345 76.0345H79.1724V79.1724H76.0345V76.0345ZM63.4828 91.7241H66.6207V94.8621H63.4828V91.7241ZM94.8621 94.8621H98V98H94.8621V94.8621Z" stroke="black" stroke-width="0.5"/>
</svg>
