<svg width="83" height="83" viewBox="0 0 83 83" fill="none" xmlns="http://www.w3.org/2000/svg">
<g filter="url(#filter0_d_337_1506)">
<path fill-rule="evenodd" clip-rule="evenodd" d="M14 29.5C14 44.6878 26.3122 57 41.5 57C56.6878 57 69 44.6878 69 29.5C69 14.3122 56.6878 2 41.5 2C26.3122 2 14 14.3122 14 29.5Z" fill="#FFC107"/>
</g>
<g filter="url(#filter1_d_337_1506)">
<path fill-rule="evenodd" clip-rule="evenodd" d="M27 30C27 38.2843 33.7157 45 42 45C50.2843 45 57 38.2843 57 30C57 21.7157 50.2843 15 42 15C33.7157 15 27 21.7157 27 30Z" fill="white"/>
</g>
<defs>
<filter id="filter0_d_337_1506" x="0" y="0" width="83" height="83" filterUnits="userSpaceOnUse" color-interpolation-filters="sRGB">
<feFlood flood-opacity="0" result="BackgroundImageFix"/>
<feColorMatrix in="SourceAlpha" type="matrix" values="0 0 0 0 0 0 0 0 0 0 0 0 0 0 0 0 0 0 127 0" result="hardAlpha"/>
<feOffset dy="12"/>
<feGaussianBlur stdDeviation="7"/>
<feColorMatrix type="matrix" values="0 0 0 0 0.254902 0 0 0 0 0.341176 0 0 0 0 1 0 0 0 0.1 0"/>
<feBlend mode="normal" in2="BackgroundImageFix" result="effect1_dropShadow_337_1506"/>
<feBlend mode="normal" in="SourceGraphic" in2="effect1_dropShadow_337_1506" result="shape"/>
</filter>
<filter id="filter1_d_337_1506" x="13" y="13" width="58" height="58" filterUnits="userSpaceOnUse" color-interpolation-filters="sRGB">
<feFlood flood-opacity="0" result="BackgroundImageFix"/>
<feColorMatrix in="SourceAlpha" type="matrix" values="0 0 0 0 0 0 0 0 0 0 0 0 0 0 0 0 0 0 127 0" result="hardAlpha"/>
<feOffset dy="12"/>
<feGaussianBlur stdDeviation="7"/>
<feColorMatrix type="matrix" values="0 0 0 0 0.254902 0 0 0 0 0.341176 0 0 0 0 1 0 0 0 0.1 0"/>
<feBlend mode="normal" in2="BackgroundImageFix" result="effect1_dropShadow_337_1506"/>
<feBlend mode="normal" in="SourceGraphic" in2="effect1_dropShadow_337_1506" result="shape"/>
</filter>
</defs>
</svg>
